<svg width="63" height="122" viewBox="0 0 63 122" fill="none" xmlns="http://www.w3.org/2000/svg">
<path d="M19.1104 37.5227C19.1104 37.5227 10.0968 25.1904 9.56837 23.6907C9.14999 22.5841 9.56839 20.9388 9.70051 20.1744C9.83263 19.41 9.95006 17.7065 10.0822 17.2624C10.3024 16.4325 9.2234 16.6 8.61418 17.3571C8.00496 18.1142 7.79943 19.6284 7.48381 19.876C7.16819 20.1235 4.76801 16.6509 3.51287 15.0493C2.25773 13.4477 1.47236 12.4722 0.701657 13.0692C0.151157 13.4987 0.562188 14.4305 1.47235 15.7992C2.00392 16.5361 2.494 17.3017 2.94035 18.0924C3.07981 18.3908 2.33115 18.4127 1.92745 19.0315C1.61183 19.512 1.92744 20.2909 1.48704 20.6622C1.216 20.8668 1.0303 21.1631 0.965327 21.4947C0.900354 21.8263 0.960645 22.17 1.13471 22.4604C1.95176 23.733 3.00544 24.8398 4.23954 25.7218C5.5901 26.6464 6.13325 26.974 6.93331 28.2334C7.73337 29.4928 14.9119 42.3566 15.3963 43.1283C15.8808 43.9 16.813 45.4724 18.2296 45.5161C19.6462 45.5598 31.2434 35.659 31.8379 35.164C33.7463 33.5842 34.3556 33.3585 34.6785 34.7781C34.7901 35.2828 34.8734 35.7931 34.9281 36.3069C35.1556 38.1124 36.3961 44.5624 36.3961 44.5624C36.3961 44.5624 42.2681 47.3798 47.0905 46.0184C51.9128 44.6571 53.5423 42.626 53.5423 42.626L51.1275 38.7239C51.7807 37.115 54.7975 30.5921 55.7737 26.0276L40.6533 23.6033C40.345 23.5378 39.8459 23.414 39.1853 23.2466C38.3559 23.0282 36.2493 22.3075 34.6565 23.6907C29.4598 28.1824 19.1251 37.5227 19.1251 37.5227" fill="#FFA8A7"/>
<path d="M49.0874 113.191L46.3789 116.926C47.6098 117.496 48.9548 117.782 50.3131 117.763C52.7427 117.85 53.4106 117.035 53.4987 116.875C53.9097 116.001 53.2712 114.429 53.095 113.075L49.0874 113.191Z" fill="#37474F"/>
<path d="M46.5329 115.135C46.5329 115.135 43.2446 114.924 40.9765 114.647C38.7085 114.371 36.9102 115.463 37.4387 116.387C37.9671 117.312 39.2223 118.083 41.1747 118.731C42.8409 119.292 44.8447 119.692 46.577 120.187C48.3092 120.682 49.513 121.33 50.5185 120.981C51.6416 120.595 52.126 120.151 52.0306 119.336C51.7855 118.176 51.4817 117.029 51.1204 115.899L46.5329 115.135Z" fill="#37474F"/>
<path d="M53.4985 109.442C53.4985 109.442 53.0874 112.834 53.0581 113.562C53.0287 114.29 49.7184 114.523 49.0871 113.191L48.9844 109.042L53.4985 109.442Z" fill="#F28F8F"/>
<path d="M50.1661 111.524L51.3478 116.678C51.3478 116.678 51.4579 117.304 48.7568 117.705C46.0557 118.105 41.8132 116.3 41.0865 115.936C40.3598 115.572 40.2791 114.836 42.9362 114.982C45.5933 115.128 46.5328 115.135 46.5328 115.135L45.6667 112.856L50.1661 111.524Z" fill="#FFA8A7"/>
<path d="M55.7299 25.9837L57.6016 25.4668C57.6016 25.4668 61.5138 37.7482 61.9469 38.9348C62.3799 40.1214 62.8717 41.3736 62.0276 42.8369C61.022 44.5768 55.7299 51.5729 55.7299 51.5729L52.3682 48.3115L56.185 41.3809L52.8086 34.6105L55.7299 25.9837Z" fill="#F28F8F"/>
<path d="M36.5064 10.0334C36.0676 9.21641 35.8449 8.3024 35.859 7.37682C35.8732 6.45124 36.1237 5.54433 36.5872 4.74086C38.4515 1.31198 42.606 -0.355143 47.5531 0.278217C49.8432 0.576697 52.5443 2.46221 54.0197 5.27957C55.6491 8.40269 55.8033 14.6926 56.2217 17.0732L36.5064 10.0334Z" fill="#37474F"/>
<path d="M36.3739 11.3804C36.3739 11.3804 35.1995 13.6008 35.405 13.8046C35.7094 13.981 36.0421 14.1041 36.3886 14.1686L36.3739 11.3804Z" fill="#FFA8A7"/>
<path d="M39.9417 4.36246C38.6645 5.1851 36.4625 6.69934 36.3671 11.6861C36.2643 16.7821 36.9983 18.4638 37.7617 19.0535C38.2755 19.4539 41.2922 19.2501 42.5841 18.9516C43.8759 18.6531 47.5973 16.8258 48.9405 14.0521C50.5186 10.7907 50.1956 6.04414 47.8542 4.58814C46.6624 3.88918 45.3112 3.50181 43.9273 3.46234C42.5433 3.42286 41.1719 3.73259 39.9417 4.36246Z" fill="#FFA8A7"/>
<path d="M53.4982 42.5967C55.7589 46.0911 57.9022 49.1487 58.372 53.0944C59.3409 61.3863 56.17 70.8649 55.4873 77.0019C56.7711 78.7476 57.5111 80.828 57.616 82.9861C57.616 85.5268 53.4982 109.442 53.4982 109.442C53.4982 109.442 50.5035 110.344 48.9841 109.041L46.1582 65.0482L47.6262 59.6901L53.4982 42.5967Z" fill="#036666"/>
<path opacity="0.2" d="M53.4982 42.5967C55.7589 46.0911 57.9022 49.1487 58.372 53.0944C59.3409 61.3863 56.17 70.8649 55.4873 77.0019C56.7711 78.7476 57.5111 80.828 57.616 82.9861C57.616 85.5268 53.4982 109.442 53.4982 109.442C53.4982 109.442 50.5035 110.344 48.9841 109.041L46.1582 65.0482L47.6262 59.6901L53.4982 42.5967Z" fill="black"/>
<path d="M46.1582 65.0482L47.6262 59.6901C50.437 58.9563 53.148 57.8881 55.7002 56.5088C55.7002 56.5088 54.1735 59.2679 49.7842 60.7821L47.5161 67.6618L47.3253 83.423L46.1582 65.0482Z" fill="#036666"/>
<path opacity="0.3" d="M46.1582 65.0482L47.6262 59.6901C50.437 58.9563 53.148 57.8881 55.7002 56.5088C55.7002 56.5088 54.1735 59.2679 49.7842 60.7821L47.5161 67.6618L47.3253 83.423L46.1582 65.0482Z" fill="black"/>
<path d="M53.4985 42.5967C54.7096 44.5623 57.6016 47.9111 56.985 51.1361C56.251 55.0382 54.1224 57.7827 47.6485 59.6901L41.571 81.5301C41.571 81.5301 44.7345 84.4421 45.7034 87.2595C46.6723 90.0768 50.1661 111.538 50.1661 111.538C50.1661 111.538 49.0798 113.293 45.6667 112.871C45.6667 112.871 33.7686 85.9345 32.9318 84.18C31.9162 82.4032 31.5604 80.3296 31.9263 78.3196C32.3006 75.495 36.3303 44.5768 36.3303 44.5768L53.4985 42.5967Z" fill="#036666"/>
<path opacity="0.2" d="M53.4985 42.5967C54.7096 44.5623 57.6016 47.9111 56.985 51.1361C56.251 55.0382 54.1224 57.7827 47.6485 59.6901L41.571 81.5301C41.571 81.5301 44.7345 84.4421 45.7034 87.2595C46.6723 90.0768 50.1661 111.538 50.1661 111.538C50.1661 111.538 49.0798 113.293 45.6667 112.871C45.6667 112.871 33.7686 85.9345 32.9318 84.18C31.9162 82.4032 31.5604 80.3296 31.9263 78.3196C32.3006 75.495 36.3303 44.5768 36.3303 44.5768L53.4985 42.5967Z" fill="black"/>
<path d="M55.7295 25.9841L40.6091 23.5598C40.3008 23.4943 39.8017 23.3706 39.1411 23.2031C39.1411 23.2031 38.4952 32.6089 34.6123 34.7638C34.7077 35.2151 34.7885 35.7175 34.8619 36.2926C35.0894 38.098 36.3299 44.5481 36.3299 44.5481C36.3299 44.5481 42.2018 47.3655 47.0242 46.0041C51.8466 44.6427 53.4761 42.6116 53.4761 42.6116L51.0612 38.7095C51.7365 37.0861 54.7753 30.5632 55.7295 25.9841Z" fill="#036666"/>
<path opacity="0.7" d="M55.7295 25.9841L40.6091 23.5598C40.3008 23.4943 39.8017 23.3706 39.1411 23.2031C39.1411 23.2031 38.4952 32.6089 34.6123 34.7638C34.7077 35.2151 34.7885 35.7175 34.8619 36.2926C35.0894 38.098 36.3299 44.5481 36.3299 44.5481C36.3299 44.5481 42.2018 47.3655 47.0242 46.0041C51.8466 44.6427 53.4761 42.6116 53.4761 42.6116L51.0612 38.7095C51.7365 37.0861 54.7753 30.5632 55.7295 25.9841Z" fill="white"/>
<path d="M51.7445 37.1587C49.7364 38.3546 47.6325 39.3846 45.4541 40.2381C47.4313 40.199 49.367 39.6683 51.0839 38.6948L51.7445 37.1587Z" fill="#036666"/>
<path d="M39.5666 4.60974C39.5666 4.60974 38.8326 9.34174 40.5648 12.1227C40.5648 12.1227 41.2107 10.2372 42.8182 10.5939C44.4256 10.9506 44.5137 13.0545 43.3833 14.2339C43.096 14.5647 42.7205 14.8085 42.2999 14.9373C41.8792 15.066 41.4305 15.0746 41.0052 14.9619C41.0052 14.9619 40.7483 18.3835 40.6088 21.2518C40.4694 24.1201 39.706 30.3737 42.9576 32.8998C46.2093 35.426 54.3713 36.3141 58.1955 31.0143C60.3241 28.0659 57.4982 22.8534 56.1843 17.0076C54.9732 11.6349 54.2906 3.67062 48.5434 2.38934C42.7961 1.10806 39.5666 4.60974 39.5666 4.60974Z" fill="#37474F"/>
</svg>
