<svg width="65" height="68" viewBox="0 0 65 68" fill="none" xmlns="http://www.w3.org/2000/svg">
<path d="M59.4961 38.0929L58.7034 33.5574L54.6223 36.2219C54.2494 35.4939 53.7209 34.8555 53.0736 34.351L55.026 29.1093L51.356 28.3013L48.6696 33.3973C47.6977 33.5599 46.7553 33.8641 45.873 34.3L44.706 30.4561L40.346 33.8559L40.6323 38.3695C39.7444 39.3559 38.9392 40.4126 38.2248 41.529L34.6282 41.347L32.1032 46.9599L35.1933 48.2703C34.8707 49.4313 34.6667 50.6215 34.5841 51.823L30.6572 55.4047L31.4426 59.9474L35.531 57.283C35.9017 58.0102 36.4307 58.6468 37.0797 59.1466L35.164 64.3955L38.834 65.1963L42.6802 61.4835C43.5683 61.3452 43.3481 59.6853 44.317 59.2121L45.484 63.0414L49.8367 59.649L49.7265 57.8726C50.6073 56.8971 53.9397 54.7495 54.659 53.6284L55.5618 52.1724L58.0868 46.5595L56.9124 44.4483L55.6059 41.6965L59.4961 38.0929ZM46.174 53.0241C42.8269 55.6304 41.77 56.2055 41.2048 52.7184C40.6396 49.2313 42.5554 43.9314 45.9024 41.3179C49.2495 38.7044 50.5266 38.5224 51.1285 42.0022C51.7304 45.4821 49.5284 50.447 46.174 53.0241Z" fill="#E0E0E0"/>
<path d="M51.3847 28.3013L56.1483 31.024L53.4619 36.1054L48.6982 33.3827L51.3847 28.3013Z" fill="#F5F5F5"/>
<path d="M63.4668 36.2799L59.3857 38.9443L54.6221 36.2216L58.7031 33.5571L63.4668 36.2799Z" fill="#F5F5F5"/>
<path d="M62.8138 49.2602L59.7236 47.9571L54.96 45.2344L58.0501 46.5375L62.8138 49.2602Z" fill="#E0E0E0"/>
<path d="M35.1562 64.3954L39.9199 67.1108L41.8723 61.8692L37.1087 59.1465L35.1562 64.3954Z" fill="#E0E0E0"/>
<path d="M50.2037 65.7639L45.4473 63.0412L44.2803 59.2119L49.0439 61.9346L50.2037 65.7639Z" fill="#E0E0E0"/>
<path d="M64.2524 40.8155L63.467 36.2801L59.3859 38.9446C59.0103 38.2163 58.4793 37.5778 57.8299 37.0736L59.7823 31.832L56.149 31.0239L53.4552 36.1199C52.4833 36.2826 51.5409 36.5868 50.6587 37.0227L49.499 33.1934L45.139 36.5931L45.4253 41.1067C44.5364 42.1001 43.7312 43.1641 43.0177 44.2881L39.4138 44.1061L36.8888 49.719L39.979 51.0294C39.6593 52.1935 39.4552 53.3858 39.3698 54.5893L35.4502 58.1201L36.2356 62.6628L40.3166 59.9983C40.6923 60.7245 41.2234 61.3606 41.8727 61.862L39.9203 67.1036L43.5903 67.9117L46.2767 62.8157C47.2524 62.6549 48.1978 62.348 49.0806 61.9057L50.2403 65.735L54.6003 62.3425L54.314 57.8289C55.2019 56.8425 56.007 55.7858 56.7215 54.6694L60.3255 54.8441L62.8504 49.2312L59.7162 47.9281C60.0412 46.7649 60.2477 45.5723 60.3328 44.3682L64.2524 40.8155ZM50.9449 55.7759C47.6052 58.3822 44.405 57.676 43.7958 54.1962C43.1866 50.7163 45.4106 45.7732 48.7576 43.167C52.1047 40.5607 55.2976 41.2742 55.9068 44.754C56.516 48.2338 54.292 53.1697 50.9449 55.7759Z" fill="#EBEBEB"/>
<path d="M49.4986 33.1788L44.735 30.4561L40.375 33.8558L45.1387 36.5785L49.4986 33.1788Z" fill="#F5F5F5"/>
<path d="M40.375 33.856L40.6613 38.3696L45.4249 41.0923L45.1387 36.5787L40.375 33.856Z" fill="#E0E0E0"/>
<path d="M43.0175 44.2514L38.2538 41.5287L34.6572 41.354L39.4135 44.0767L43.0175 44.2514Z" fill="#F5F5F5"/>
<path d="M34.6578 41.354L32.1328 46.9596L36.8891 49.6823L39.4141 44.0767L34.6578 41.354Z" fill="#E0E0E0"/>
<path d="M39.3697 54.5455L34.6134 51.8228L30.6865 55.4045L35.4429 58.1272L39.3697 54.5455Z" fill="#F5F5F5"/>
<path d="M36.2356 62.6702L31.4719 59.9475L30.6865 55.4048L35.4429 58.1275L36.2356 62.6702Z" fill="#E0E0E0"/>
<path d="M56.1484 31.024L51.3848 28.3013L55.0254 29.1093L59.7817 31.8321L56.1484 31.024Z" fill="#F5F5F5"/>
<path d="M38.1658 17.5049V10.7272L32.7269 13.1587C32.4388 12.0088 31.9413 10.9208 31.2589 9.94824L34.6867 3.09776L30.5029 0.702637L26.231 7.07264C25.0405 6.96948 23.8411 7.08549 22.6931 7.4148L22.0912 1.52528L16.1752 4.91776L15.5806 11.4698C14.2931 12.6013 13.1092 13.8438 12.0428 15.1826L7.77088 13.7266L3.58709 20.9192L7.00752 23.8312C6.37551 25.4164 5.88431 27.0534 5.53952 28.7234L0.100586 32.5162V39.3012L5.53952 36.8697C5.8276 38.0196 6.3251 39.1076 7.00752 40.0802L3.60176 46.9379L7.78556 49.333L12.0574 42.963C13.2479 43.0659 14.4473 42.9499 15.5953 42.6209L16.1899 48.5104L22.1059 45.1179L22.7078 38.5659C24.5543 37.8977 26.19 36.7575 27.4494 35.2608L30.5175 36.331L34.7013 29.1456L32.1323 26.9616C32.69 25.1404 32.8967 23.2313 32.7416 21.3342L38.1658 17.5049ZM19.1332 34.4382C14.5971 37.0371 11.7932 35.1662 11.7932 29.9901C11.7932 24.814 15.5439 18.4149 20.0874 15.8159C24.6309 13.217 27.376 15.0879 27.376 20.3077C27.376 25.5274 23.6767 31.8319 19.1332 34.4382Z" fill="#E0E0E0"/>
<path d="M35.2596 3.41808L30.5033 0.702637L26.2314 7.07264L30.9878 9.79536L35.2596 3.41808Z" fill="#F5F5F5"/>
<path d="M42.9292 13.4498L38.1655 10.7271L32.7266 13.1586L37.4902 15.8813L42.9292 13.4498Z" fill="#F5F5F5"/>
<path d="M20.9319 51.2333L16.1756 48.5106L15.5811 42.6211L20.3374 45.3438L20.9319 51.2333Z" fill="#E0E0E0"/>
<path d="M3.58008 46.9379L8.34374 49.6606L11.7715 42.8101L7.00786 40.0874L3.58008 46.9379Z" fill="#E0E0E0"/>
<path d="M42.9295 20.264V13.4863L37.4906 15.896C37.2055 14.745 36.7077 13.6565 36.0226 12.6855L39.4503 5.83502L35.2665 3.43262L30.9947 9.8099C29.8042 9.70316 28.6041 9.81923 27.4568 10.1521L26.8549 4.24798L20.9389 7.64046L20.337 14.1925C19.0513 15.3259 17.8675 16.5682 16.7991 17.9053L12.5272 16.4493L8.34342 23.6419L11.7712 26.5539C11.1358 28.138 10.6446 29.7752 10.3032 31.4461L4.86426 35.2389V42.0239L10.3032 39.5924C10.5881 40.7434 11.0859 41.832 11.7712 42.8029L8.34342 49.6533L12.5272 52.0485L16.7991 45.6785C17.9896 45.7816 19.189 45.6656 20.337 45.3363L20.9389 51.2258L26.8549 47.8333L27.4494 41.2813C28.737 40.1498 29.9209 38.9073 30.9873 37.5685L35.2592 39.0245L39.443 31.8392L36.0152 28.9272C36.6504 27.343 37.1417 25.7058 37.4832 24.035L42.9295 20.264ZM23.8969 37.1973C19.3534 39.7962 15.6687 37.685 15.6687 32.4871C15.6687 27.2892 19.3387 20.9629 23.8969 18.3566C28.455 15.7504 32.1177 17.8689 32.1177 23.0668C32.1177 28.2647 28.433 34.5546 23.8969 37.1609V37.1973Z" fill="#EBEBEB"/>
<path d="M12.0424 15.197L16.7987 17.9198L12.5268 16.4419L7.77051 13.7119L12.0424 15.197Z" fill="#F0F0F0"/>
<path d="M7.7699 13.7195L3.58496 20.9146L8.34703 23.6393L12.532 16.4442L7.7699 13.7195Z" fill="#F5F5F5"/>
<path d="M3.58008 20.9048L8.34374 23.6275L11.7715 26.5541L7.00786 23.8386L3.58008 20.9048Z" fill="#E0E0E0"/>
<path d="M5.53952 28.7305L10.3032 31.4532L4.86424 35.2461L0.100586 32.5233L5.53952 28.7305Z" fill="#F5F5F5"/>
<path d="M0.100586 32.5234L4.86424 35.2462V42.0311L0.100586 39.3084V32.5234Z" fill="#E0E0E0"/>
<path d="M26.8545 4.24811L22.0908 1.52539L16.1748 4.91787L20.9311 7.64059L26.8545 4.24811Z" fill="#F5F5F5"/>
</svg>
