<svg width="178" height="105" viewBox="0 0 178 105" fill="none" xmlns="http://www.w3.org/2000/svg">
<path d="M16.0801 97.8697L22.0475 94.4554C25.3793 91.7587 27.9152 88.2199 29.3875 84.2124C31.2298 79.1747 30.9729 75.3454 29.6517 73.4235C28.0296 71.0575 23.8238 71.4724 23.655 76.452C23.3026 86.2654 20.418 93.0722 16.0801 97.8697Z" fill="#036666"/>
<path opacity="0.2" d="M16.0801 97.8697L22.0475 94.4554C25.3793 91.7587 27.9152 88.2199 29.3875 84.2124C31.2298 79.1747 30.9729 75.3454 29.6517 73.4235C28.0296 71.0575 23.8238 71.4724 23.655 76.452C23.3026 86.2654 20.418 93.0722 16.0801 97.8697Z" fill="black"/>
<path d="M16.0803 98.2336C16.0026 98.2327 15.9272 98.2073 15.8649 98.1611C15.8027 98.115 15.7569 98.0504 15.734 97.9767C15.7111 97.903 15.7125 97.8241 15.7378 97.7512C15.7631 97.6783 15.811 97.6153 15.8748 97.5711C29.674 88.1072 27.0022 74.9085 26.9728 74.7775C26.9627 74.7297 26.9622 74.6804 26.9713 74.6324C26.9804 74.5843 26.9989 74.5386 27.0258 74.4977C27.0528 74.4568 27.0875 74.4216 27.1282 74.394C27.1688 74.3664 27.2146 74.3471 27.2628 74.337C27.311 74.327 27.3607 74.3265 27.4091 74.3355C27.4575 74.3445 27.5036 74.3629 27.5448 74.3896C27.5861 74.4163 27.6216 74.4508 27.6494 74.4911C27.6772 74.5314 27.6967 74.5768 27.7068 74.6246C27.7068 74.7629 30.5254 88.4129 16.3152 98.1681C16.2462 98.2149 16.1637 98.2379 16.0803 98.2336Z" fill="white"/>
<path d="M4.12306 104.72C4.12306 104.72 2.04584 103.046 2.54496 100.775C3.04408 98.5032 4.3873 96.8725 2.08988 93.946C-0.207539 91.0194 -0.84612 87.1173 1.89904 85.0061C3.99094 83.3681 7.25724 85.6832 8.43164 81.3661C9.29776 78.2066 9.00416 71.2105 13.0632 68.8809C17.1222 66.5513 19.6692 70.0603 19.0306 74.8068C18.4728 79.0511 17.68 83.1351 18.2966 84.2708C19.4857 86.4548 21.5189 86.1564 21.4234 90.1458C21.3427 93.8586 17.7975 96.9307 17.7975 96.9307L4.12306 104.72Z" fill="#036666"/>
<path d="M10.9415 101.16C10.8518 101.159 10.7654 101.126 10.698 101.068C10.6307 101.009 10.5868 100.928 10.5745 100.84C9.5249 92.213 12.0425 77.3181 14.0977 72.8918C14.115 72.8427 14.1427 72.7979 14.179 72.7603C14.2152 72.7227 14.2592 72.6933 14.3079 72.674C14.3565 72.6547 14.4088 72.6459 14.4612 72.6483C14.5136 72.6508 14.5648 72.6643 14.6115 72.688C14.6553 72.7076 14.6947 72.7357 14.7274 72.7706C14.7601 72.8055 14.7854 72.8466 14.8019 72.8914C14.8183 72.9361 14.8255 72.9837 14.823 73.0313C14.8206 73.0789 14.8086 73.1256 14.7877 73.1685C12.7545 77.5365 10.325 92.475 11.3305 100.723C11.3409 100.819 11.3127 100.914 11.2522 100.989C11.1917 101.064 11.1038 101.113 11.0076 101.124L10.9415 101.16Z" fill="white"/>
<path d="M10.744 94.4409C10.6878 94.4436 10.632 94.431 10.5825 94.4044C8.03551 93.1741 6.42071 88.7843 6.35465 88.5804C6.33666 88.5352 6.32801 88.4868 6.32921 88.4381C6.33041 88.3895 6.34143 88.3415 6.36163 88.2972C6.38183 88.2528 6.41078 88.213 6.44679 88.1799C6.4828 88.1468 6.52513 88.1213 6.57127 88.1047C6.61741 88.0882 6.66644 88.0809 6.71544 88.0835C6.76444 88.0861 6.81242 88.0984 6.85656 88.1196C6.90069 88.1409 6.94007 88.1708 6.97237 88.2074C7.00467 88.244 7.02924 88.2867 7.04461 88.3329C7.04461 88.3766 8.62271 92.6281 10.9054 93.7274C10.9803 93.7634 11.0407 93.8235 11.0766 93.898C11.1125 93.9724 11.1218 94.0567 11.103 94.1371C11.0843 94.2175 11.0385 94.2892 10.9733 94.3404C10.908 94.3916 10.8272 94.4194 10.744 94.419V94.4409Z" fill="white"/>
<path d="M10.6998 97.3527C10.6262 97.3528 10.5544 97.3304 10.494 97.2888C10.4337 97.2471 10.3876 97.1881 10.3621 97.1197C10.3256 97.0309 10.3259 96.9313 10.363 96.8427C10.4002 96.7541 10.471 96.6836 10.5603 96.6465C14.8469 94.943 17.5186 89.8834 17.548 89.8252C17.5928 89.7393 17.6701 89.6745 17.763 89.6451C17.8559 89.6158 17.9568 89.6242 18.0434 89.6687C18.1301 89.7131 18.1953 89.7898 18.2249 89.8819C18.2545 89.9741 18.246 90.0741 18.2012 90.16C18.0838 90.3784 15.3753 95.5181 10.8612 97.3236C10.8109 97.3472 10.7552 97.3573 10.6998 97.3527Z" fill="white"/>
<path d="M160.531 58.1862C160.531 58.1862 157.324 53.032 157.008 47.4336C156.693 41.8353 157.933 39.5057 159.636 38.836C161.339 38.1662 161.471 40.2264 162.344 41.4422C163.218 42.658 165.001 41.9664 165.662 38.1735C166.323 34.3806 168.73 27.9815 173.736 26.7366C179.241 25.3825 176.29 31.7889 174.903 34.286C173.516 36.783 172.444 40.1901 173.354 41.1146C174.265 42.0392 175.681 40.3284 177.024 41.9154C178.661 43.8301 173.575 50.7242 170.653 52.3913L160.531 58.1862Z" fill="#036666"/>
<path d="M164.928 56.024C164.88 56.0221 164.832 56.0109 164.788 55.9908C164.745 55.9708 164.705 55.9423 164.673 55.9072C164.64 55.872 164.614 55.8308 164.598 55.7859C164.581 55.741 164.574 55.6933 164.576 55.6454C165.073 46.6398 167.904 37.9137 172.796 30.3111C172.824 30.2714 172.86 30.2378 172.901 30.2122C172.942 30.1866 172.988 30.1695 173.036 30.162C173.084 30.1546 173.133 30.1568 173.18 30.1686C173.227 30.1805 173.271 30.2017 173.31 30.231C173.387 30.2877 173.439 30.3719 173.454 30.4658C173.469 30.5597 173.446 30.6557 173.391 30.7333C168.586 38.2247 165.806 46.8164 165.317 55.6819C165.314 55.7297 165.302 55.7765 165.281 55.8196C165.26 55.8627 165.23 55.9013 165.194 55.933C165.158 55.9648 165.116 55.9892 165.07 56.0048C165.024 56.0205 164.976 56.027 164.928 56.024Z" fill="white"/>
<path d="M165.346 51.7216C165.285 51.721 165.224 51.7061 165.17 51.6779C163.115 50.5495 161.977 47.2007 161.933 47.0624C161.917 47.017 161.91 46.9689 161.913 46.9208C161.915 46.8727 161.928 46.8257 161.949 46.7823C161.97 46.739 162 46.7003 162.036 46.6684C162.072 46.6365 162.115 46.612 162.161 46.5965C162.253 46.5666 162.354 46.5744 162.44 46.6181C162.527 46.6618 162.593 46.7378 162.623 46.8295C162.623 46.8295 163.724 50.0545 165.559 51.0373C165.642 51.086 165.703 51.1647 165.729 51.257C165.755 51.3493 165.744 51.4479 165.699 51.5323C165.665 51.595 165.614 51.6464 165.551 51.6801C165.489 51.7138 165.417 51.7283 165.346 51.7216Z" fill="white"/>
<path d="M165.706 49.5157C165.624 49.5148 165.546 49.4872 165.482 49.4371C165.418 49.387 165.373 49.3174 165.353 49.239C165.341 49.1931 165.339 49.1453 165.345 49.0984C165.352 49.0514 165.368 49.0063 165.393 48.9656C165.418 48.9249 165.45 48.8895 165.489 48.8615C165.527 48.8334 165.571 48.8133 165.618 48.8022C170.917 47.47 172.752 44.7182 172.767 44.689C172.793 44.6484 172.827 44.6133 172.866 44.5856C172.906 44.5579 172.951 44.5383 172.998 44.5278C173.046 44.5174 173.095 44.5162 173.142 44.5245C173.19 44.5328 173.236 44.5504 173.277 44.5762C173.318 44.602 173.353 44.6356 173.381 44.675C173.409 44.7144 173.429 44.7588 173.439 44.8058C173.45 44.8528 173.451 44.9014 173.443 44.9488C173.434 44.9962 173.417 45.0415 173.391 45.0821C173.31 45.2059 171.402 48.0961 165.801 49.5084L165.706 49.5157Z" fill="white"/>
<path d="M80.6717 46.8733C80.6717 46.8733 73.6327 45.1698 73.2657 32.0949C72.8767 17.9862 74.9906 1.51889 66.6597 0.186647C58.3288 -1.14559 53.7046 8.92264 53.8073 20.6798C53.9028 30.9738 58.0866 53.3234 80.6424 57.7059L80.6717 46.8733Z" fill="#036666"/>
<path opacity="0.2" d="M80.6717 46.8733C80.6717 46.8733 73.6327 45.1698 73.2657 32.0949C72.8767 17.9862 74.9906 1.51889 66.6597 0.186647C58.3288 -1.14559 53.7046 8.92264 53.8073 20.6798C53.9028 30.9738 58.0866 53.3234 80.6424 57.7059L80.6717 46.8733Z" fill="black"/>
<path d="M80.6716 56.3666H80.6055C75.5336 55.4493 71.4011 52.6756 68.3257 48.1329C59.2094 34.6431 62.0793 9.45427 63.0262 5.05715C63.0474 4.96348 63.1043 4.88158 63.1851 4.82864C63.2658 4.7757 63.3641 4.75585 63.4593 4.77323C63.5543 4.79585 63.6369 4.85376 63.6902 4.93502C63.7434 5.01629 63.7633 5.11471 63.7455 5.21002C62.8133 9.57802 59.9581 34.4465 68.9349 47.7252C70.2416 49.7845 71.9655 51.5519 73.9973 52.9154C76.0291 54.2789 78.3244 55.2087 80.7376 55.6459C80.7855 55.6546 80.8312 55.6727 80.872 55.6991C80.9127 55.7255 80.9478 55.7596 80.9751 55.7996C81.0025 55.8396 81.0215 55.8846 81.0311 55.9319C81.0407 55.9792 81.0408 56.028 81.0312 56.0754C81.0156 56.1582 80.9709 56.233 80.9051 56.2863C80.8393 56.3396 80.7565 56.368 80.6716 56.3666Z" fill="white"/>
<path d="M80.6721 89.92C73.3981 90.8955 61.5881 90.8809 54.7692 85.552C47.9503 80.223 49.3743 75.6366 51.9947 73.722C54.6151 71.8073 56.8905 69.6233 52.3837 65.3718C47.8769 61.1203 40.6397 54.2916 38.2909 44.0487C35.9421 33.8057 37.1018 27.3993 41.7113 25.2663C46.1814 23.1987 47.3631 26.4893 50.101 33.2743C52.8388 40.0592 58.997 34.2425 64.2672 36.361C69.5373 38.4795 69.3244 42.6727 69.6547 46.2763C69.985 49.8799 71.7246 50.8773 74.712 50.8773C77.6994 50.8773 80.6721 52.5808 80.6721 55.9733V89.92Z" fill="#036666"/>
<path d="M80.672 78.0242C80.6406 78.0311 80.608 78.0311 80.5766 78.0242C80.261 77.9369 72.7375 75.7674 61.7788 65.7865C50.1082 55.1577 44.6032 39.2145 44.5445 39.0544C44.5164 38.9626 44.5251 38.8637 44.5689 38.7782C44.6127 38.6927 44.6881 38.6273 44.7794 38.5958C44.8709 38.5656 44.9707 38.5723 45.0573 38.6145C45.1438 38.6568 45.2101 38.7311 45.2418 38.8214C45.2932 38.9816 50.7468 54.7501 62.278 65.2478C73.0825 75.0977 80.694 77.3035 80.7748 77.3253C80.821 77.3387 80.8642 77.361 80.9018 77.391C80.9394 77.4209 80.9706 77.4579 80.9938 77.4998C81.017 77.5417 81.0316 77.5877 81.0368 77.6352C81.0421 77.6827 81.0378 77.7308 81.0243 77.7767C81.0005 77.8502 80.9533 77.9141 80.8898 77.9588C80.8262 78.0034 80.7498 78.0263 80.672 78.0242Z" fill="white"/>
<path d="M64.8391 68.32C64.7654 68.3211 64.6931 68.2992 64.6325 68.2574C64.5719 68.2156 64.5261 68.156 64.5015 68.087C62.1454 62.0883 61.6096 49.2537 61.5655 48.7077C61.5634 48.6116 61.599 48.5185 61.6647 48.4479C61.7304 48.3773 61.8211 48.3347 61.9178 48.3291C62.0137 48.3305 62.1057 48.3669 62.1761 48.4314C62.2465 48.4959 62.2905 48.5839 62.2995 48.6785C62.2995 48.8096 62.85 61.9354 65.1621 67.8249C65.1798 67.8698 65.1883 67.9178 65.1872 67.966C65.186 68.0142 65.1752 68.0616 65.1554 68.1057C65.1356 68.1497 65.1072 68.1894 65.0718 68.2224C65.0364 68.2555 64.9948 68.2812 64.9493 68.2981C64.9138 68.3108 64.8767 68.3181 64.8391 68.32Z" fill="white"/>
<path d="M64.7811 76.9469C64.1044 76.9522 63.428 76.9182 62.7553 76.845C62.7071 76.8393 62.6605 76.8242 62.6182 76.8006C62.5759 76.777 62.5387 76.7454 62.5087 76.7075C62.4787 76.6696 62.4565 76.6263 62.4434 76.58C62.4303 76.5336 62.4265 76.4851 62.4323 76.4373C62.4381 76.3895 62.4533 76.3433 62.4771 76.3014C62.5009 76.2594 62.5328 76.2225 62.571 76.1927C62.6091 76.163 62.6528 76.141 62.6996 76.128C62.7463 76.115 62.7952 76.1113 62.8434 76.117C62.9094 76.117 69.743 76.8887 72.8771 73.7219C72.9098 73.6836 72.95 73.6524 72.9954 73.6302C73.0408 73.6081 73.0903 73.5954 73.1408 73.5932C73.1913 73.5909 73.2418 73.599 73.289 73.6169C73.3362 73.6349 73.3792 73.6624 73.4152 73.6976C73.4512 73.7328 73.4795 73.775 73.4983 73.8216C73.517 73.8681 73.5259 73.9181 73.5243 73.9682C73.5227 74.0183 73.5107 74.0676 73.489 74.1129C73.4673 74.1582 73.4364 74.1986 73.3983 74.2315C71.1302 76.5538 67.174 76.9469 64.7811 76.9469Z" fill="white"/>
</svg>
