<svg width="30" height="26" viewBox="0 0 30 26" fill="none" xmlns="http://www.w3.org/2000/svg">
<path d="M26.655 5.95649L25.4439 6.68449C25.5456 6.25709 25.6021 5.82037 25.6127 5.38137C25.6127 2.94257 23.8878 1.95977 21.7592 3.19737C21.1114 3.58492 20.5334 4.07702 20.049 4.65337C20.049 1.37737 17.7295 0.0451256 14.8669 1.68313C13.3585 2.65884 12.1031 3.97349 11.2028 5.52043C10.3024 7.06736 9.78241 8.80301 9.6849 10.5866C9.6849 10.754 9.6849 10.9142 9.6849 11.0743C8.94751 10.9823 8.20111 11.1525 7.57833 11.5548C6.45671 12.2797 5.52324 13.2567 4.85369 14.4065C4.18414 15.5563 3.79739 16.8465 3.72483 18.1723C3.72445 18.4805 3.75643 18.788 3.82025 19.0896L3.17433 19.4609C1.42007 20.4655 -0.00390625 22.4238 -0.00390625 23.8289C-0.00390625 25.2339 1.42007 25.5688 3.17433 24.5569L26.6623 11.1253C28.4166 10.1206 29.8405 8.16233 29.8405 6.75729C29.8405 5.35225 28.4092 4.94457 26.655 5.95649Z" fill="#EBEBEB"/>
</svg>
