<svg width="90" height="199" viewBox="0 0 90 199" fill="none" xmlns="http://www.w3.org/2000/svg">
<path d="M9.92351 198.66L78.9195 159.144C79.0715 159.091 79.2032 158.993 79.2963 158.862C79.3895 158.732 79.4395 158.576 79.4395 158.416C79.4395 158.257 79.3895 158.101 79.2963 157.97C79.2032 157.84 79.0715 157.741 78.9195 157.688L72.541 154.048C72.146 153.851 71.7098 153.749 71.2675 153.749C70.8253 153.749 70.3891 153.851 69.9941 154.048L0.976046 193.528C0.824038 193.581 0.692368 193.679 0.599224 193.81C0.50608 193.94 0.456055 194.096 0.456055 194.256C0.456055 194.416 0.50608 194.572 0.599224 194.702C0.692368 194.832 0.824038 194.931 0.976046 194.984L7.37653 198.624C7.76874 198.827 8.20338 198.936 8.64566 198.942C9.08794 198.948 9.52557 198.852 9.92351 198.66Z" fill="#E0E0E0"/>
<path d="M77.0258 6.57758L14.812 42.2059C13.8872 42.8045 13.1175 43.6108 12.5653 44.5594C12.0132 45.508 11.694 46.5722 11.6338 47.6659V194.045C11.6338 196.054 13.0577 196.87 14.812 195.865L77.0258 160.237C77.9519 159.639 78.7225 158.833 79.2748 157.884C79.8272 156.936 80.1456 155.871 80.2041 154.777V8.39758C80.2041 6.3883 78.7874 5.57294 77.0258 6.57758Z" fill="#455A64"/>
<path d="M14.8117 42.2058L77.0255 6.57746C78.5963 5.67474 79.8955 6.23529 80.1597 7.8005C80.0129 6.81642 79.6578 5.87431 79.1176 5.03614C78.5774 4.19796 77.8644 3.48272 77.0255 2.93745L74.4418 1.48145C73.4569 0.985833 72.368 0.727539 71.2636 0.727539C70.1592 0.727539 69.0703 0.985833 68.0854 1.48145L5.86421 37.0807C4.92709 37.6635 4.15431 38.4725 3.61816 39.4321L12.5656 44.5281C13.1016 43.5761 13.8749 42.7765 14.8117 42.2058Z" fill="#37474F"/>
<path d="M2.67188 188.92C2.73213 190.014 3.05127 191.078 3.60343 192.026C4.1556 192.975 4.92526 193.781 5.8501 194.38L8.44112 195.836C9.33789 196.281 10.3193 196.533 11.3211 196.575C12.3229 196.618 13.3225 196.45 14.2544 196.083C12.7864 196.651 11.6193 195.814 11.6193 194.016V47.666C11.6561 46.5677 11.9771 45.4972 12.5515 44.5574L3.60406 39.4614C3.03769 40.394 2.71711 41.4531 2.67188 42.5409V188.92Z" fill="#263238"/>
<path d="M16.5221 61.7089L75.3375 28.0389C76.3945 27.442 77.2459 27.9297 77.2459 29.1309V137.472C77.2107 138.128 77.0194 138.767 76.6877 139.337C76.3561 139.906 75.8934 140.39 75.3375 140.748L16.5441 174.418C15.4872 175.022 14.6357 174.534 14.6357 173.326V64.9849C14.6691 64.3304 14.8573 63.6928 15.185 63.1238C15.5127 62.5547 15.9707 62.07 16.5221 61.7089Z" fill="white"/>
<path d="M45.9184 29.9389C45.5938 30.1503 45.3237 30.4343 45.1299 30.7681C44.9361 31.102 44.8241 31.4762 44.8027 31.8608C44.8027 32.5888 45.3019 32.8582 45.9184 32.5015C46.2443 32.2914 46.5153 32.0077 46.7093 31.6736C46.9032 31.3395 47.0145 30.9646 47.0341 30.5796C47.0341 29.8734 46.535 29.5895 45.9184 29.9389Z" fill="#37474F"/>
<path d="M45.9186 162.762C44.6355 163.595 43.5681 164.716 42.803 166.034C42.0379 167.351 41.5965 168.83 41.5146 170.348C41.5146 173.136 43.4891 174.272 45.9186 172.874C47.2014 172.041 48.2684 170.921 49.0335 169.603C49.7986 168.285 50.2402 166.807 50.3226 165.289C50.3373 162.5 48.3555 161.365 45.9186 162.762Z" fill="#37474F"/>
<path d="M35.3563 41.2082C34.7112 41.6329 34.1758 42.202 33.7933 42.8697C33.4108 43.5374 33.1919 44.285 33.1543 45.052C33.1543 46.4643 34.1525 47.0394 35.3563 46.3333C36.0082 45.9126 36.5507 45.3452 36.9397 44.6773C37.3288 44.0093 37.5533 43.2597 37.595 42.4894C37.595 41.0771 36.5968 40.502 35.3563 41.2082Z" fill="#37474F"/>
<path d="M40.8398 40.7281C40.8398 41.6745 41.5739 42.0312 42.4326 41.5289L57.1126 33.1059C57.5674 32.8243 57.9486 32.4401 58.2254 31.9847C58.5022 31.5293 58.6666 31.0155 58.7054 30.4851C58.7054 29.546 57.9714 29.1893 57.1126 29.6916L42.4326 38.1146C41.9789 38.3955 41.5982 38.7786 41.3214 39.2326C41.0447 39.6867 40.8797 40.199 40.8398 40.7281Z" fill="#37474F"/>
<path d="M7.63322 66.3973C8.15411 66.7338 8.58771 67.1873 8.89887 67.7211C9.21004 68.2548 9.39 68.8538 9.42419 69.4694C9.42419 70.6051 8.62412 71.0638 7.63322 70.4959C7.11411 70.1582 6.68225 69.7042 6.37245 69.1706C6.06264 68.6369 5.88355 68.0386 5.84961 67.4238C5.84961 66.2954 6.64966 65.8367 7.63322 66.3973Z" fill="#37474F"/>
<path d="M7.63322 80.0692C8.15411 80.4058 8.58771 80.8593 8.89887 81.393C9.21004 81.9268 9.39 82.5258 9.42419 83.1414C9.42419 84.2698 8.62412 84.7285 7.63322 84.1679C7.11411 83.8301 6.68225 83.3762 6.37245 82.8425C6.06264 82.3089 5.88355 81.7106 5.84961 81.0957C5.84961 79.9601 6.64966 79.5014 7.63322 80.0692Z" fill="#37474F"/>
<path d="M7.07514 66.6739C7.59603 67.0104 8.02963 67.464 8.34079 67.9977C8.65195 68.5315 8.83192 69.1305 8.8661 69.7461C8.8661 70.8745 8.06604 71.3331 7.07514 70.7726C6.55426 70.4361 6.12065 69.9825 5.80949 69.4488C5.49833 68.915 5.31836 68.316 5.28418 67.7004C5.29152 66.5647 6.09158 66.1279 7.07514 66.6739Z" fill="#455A64"/>
<path d="M7.07514 80.3382C7.59699 80.6754 8.03119 81.1301 8.3424 81.6652C8.65362 82.2003 8.83305 82.8007 8.8661 83.4176C8.8661 84.546 8.06604 85.0047 7.07514 84.4368C6.55303 84.1016 6.11849 83.6484 5.80717 83.1144C5.49585 82.5803 5.31662 81.9807 5.28418 81.3647C5.29152 80.2363 6.09158 79.7776 7.07514 80.3382Z" fill="#455A64"/>
<path d="M89.1512 32.5597C89.1512 31.3513 88.2998 30.8635 87.2428 31.4677L80.2038 35.4936L28.4494 65.1377C27.8935 65.496 27.4309 65.9795 27.0992 66.5488C26.7675 67.1181 26.5763 67.7571 26.541 68.4137V176.726C26.541 177.934 27.3924 178.422 28.4494 177.818L80.2258 148.166L87.2428 144.148C87.7987 143.789 88.2614 143.306 88.593 142.737C88.9247 142.167 89.1159 141.528 89.1512 140.872V32.5597Z" fill="white"/>
<path d="M89.8855 32.56C89.9317 32.1949 89.8683 31.8244 89.7034 31.4949C89.5383 31.1653 89.2791 30.8913 88.9579 30.7072C88.6367 30.5231 88.2679 30.4369 87.8976 30.4596C87.5274 30.4823 87.172 30.6127 86.8761 30.8346L80.16 34.6858L28.0827 64.5338C27.4122 64.9535 26.8547 65.5287 26.4583 66.2098C26.0619 66.8908 25.8385 67.6573 25.8073 68.4431V176.726C25.7779 177.089 25.8483 177.454 26.0112 177.781C26.174 178.108 26.4232 178.385 26.7322 178.582C26.995 178.734 27.2943 178.812 27.5983 178.808C28.0286 178.795 28.4481 178.672 28.8167 178.451L80.9307 148.603L87.6321 144.767C88.2988 144.343 88.8533 143.767 89.2492 143.086C89.6451 142.406 89.8709 141.642 89.9075 140.857L89.8855 32.56ZM80.1747 147.358L79.5728 147.708L28.1121 177.177C28.0256 177.243 27.9254 177.289 27.8187 177.312C27.7121 177.334 27.6017 177.333 27.4955 177.308C27.4001 177.25 27.3047 177.046 27.3047 176.711V68.414C27.3427 67.8854 27.5012 67.3723 27.7682 66.9132C28.0352 66.4542 28.4037 66.0613 28.8461 65.7641L80.2555 36.2801L87.5955 32.065C87.6819 31.9991 87.7822 31.9531 87.8888 31.9304C87.9955 31.9078 88.1059 31.9089 88.212 31.9339C88.3074 31.9922 88.4028 32.196 88.4028 32.5309V140.872C88.3648 141.4 88.2064 141.914 87.9394 142.373C87.6724 142.832 87.3038 143.225 86.8615 143.522L80.16 147.358H80.1747Z" fill="#036666"/>
<path d="M57.8464 57.7269C64.4524 53.9559 69.7739 56.9989 69.7739 64.5629C69.7739 72.1268 64.4304 81.3069 57.8464 85.0488C51.2625 88.7907 45.9189 85.7768 45.9189 78.2201C45.9189 70.6635 51.2625 61.5053 57.8464 57.7269Z" fill="#036666"/>
<path d="M57.8467 63.6674C59.9827 62.4444 61.7149 63.4345 61.7149 65.8514C61.6423 67.1829 61.2542 68.4787 60.5821 69.6335C59.91 70.7884 58.9729 71.7698 57.8467 72.4981C55.7108 73.7211 53.9785 72.731 53.9785 70.3141C54.0511 68.9826 54.4392 67.6868 55.1113 66.532C55.7834 65.3771 56.7205 64.3957 57.8467 63.6674Z" fill="#036666"/>
<path d="M65.3846 76.7131C65.3846 72.6946 62.544 71.0639 59.0282 73.0731L56.8262 74.3326C53.3176 76.3419 50.4697 81.234 50.4697 85.2526V86.3373C52.5029 86.9998 55.0572 86.6431 57.8097 85.0487C60.8589 83.1833 63.4374 80.6508 65.3479 77.645L65.3846 76.7131Z" fill="#036666"/>
<path opacity="0.7" d="M57.8467 63.6674C59.9827 62.4444 61.7149 63.4345 61.7149 65.8514C61.6423 67.1829 61.2542 68.4787 60.5821 69.6335C59.91 70.7884 58.9729 71.7698 57.8467 72.4981C55.7108 73.7211 53.9785 72.731 53.9785 70.3141C54.0511 68.9826 54.4392 67.6868 55.1113 66.532C55.7834 65.3771 56.7205 64.3957 57.8467 63.6674Z" fill="white"/>
<path opacity="0.7" d="M65.3846 76.7131C65.3846 72.6946 62.544 71.0639 59.0282 73.0731L56.8262 74.3326C53.3176 76.3419 50.4697 81.234 50.4697 85.2526V86.3373C52.5029 86.9998 55.0572 86.6431 57.8097 85.0487C60.8589 83.1833 63.4374 80.6508 65.3479 77.645L65.3846 76.7131Z" fill="white"/>
<path d="M34.7698 101.683L50.1178 92.8963C50.8518 92.4959 51.3876 92.8162 51.3876 93.6243V94.1266C51.3643 94.5641 51.2372 94.99 51.0165 95.3695C50.7959 95.7491 50.4879 96.0715 50.1178 96.3106L34.7698 105.098C34.0725 105.498 33.5 105.17 33.5 104.37V103.867C33.5238 103.43 33.6512 103.004 33.8718 102.625C34.0924 102.245 34.4001 101.923 34.7698 101.683Z" fill="#036666"/>
<path opacity="0.1" d="M34.7698 101.683L50.1178 92.8963C50.8518 92.4959 51.3876 92.8162 51.3876 93.6243V94.1266C51.3643 94.5641 51.2372 94.99 51.0165 95.3695C50.7959 95.7491 50.4879 96.0715 50.1178 96.3106L34.7698 105.098C34.0725 105.498 33.5 105.17 33.5 104.37V103.867C33.5238 103.43 33.6512 103.004 33.8718 102.625C34.0924 102.245 34.4001 101.923 34.7698 101.683Z" fill="black"/>
<path d="M34.1386 112.29L80.5714 85.7036C80.9164 85.4998 81.2027 85.6599 81.2027 86.0676V91.4402C81.1897 91.6583 81.126 91.8704 81.0165 92.0598C80.907 92.2493 80.7546 92.411 80.5714 92.5322L34.1386 119.119C33.7863 119.323 33.5 119.155 33.5 118.755V113.382C33.5126 113.163 33.577 112.95 33.6879 112.761C33.7988 112.571 33.9532 112.41 34.1386 112.29Z" fill="#036666"/>
<path opacity="0.2" d="M34.1386 112.29L80.5714 85.7036C80.9164 85.4998 81.2027 85.6599 81.2027 86.0676V91.4402C81.1897 91.6583 81.126 91.8704 81.0165 92.0598C80.907 92.2493 80.7546 92.411 80.5714 92.5322L34.1386 119.119C33.7863 119.323 33.5 119.155 33.5 118.755V113.382C33.5126 113.163 33.577 112.95 33.6879 112.761C33.7988 112.571 33.9532 112.41 34.1386 112.29Z" fill="white"/>
<path d="M34.7698 125.584L50.1178 116.797C50.8518 116.396 51.3876 116.724 51.3876 117.525V118.027C51.3649 118.465 51.238 118.891 51.0173 119.271C50.7966 119.65 50.4883 119.973 50.1178 120.211L34.7698 128.998C34.0725 129.406 33.5 129.078 33.5 128.27V127.768C33.525 127.331 33.6528 126.905 33.8734 126.526C34.0939 126.147 34.4009 125.824 34.7698 125.584Z" fill="#036666"/>
<path opacity="0.1" d="M34.7698 125.584L50.1178 116.797C50.8518 116.396 51.3876 116.724 51.3876 117.525V118.027C51.3649 118.465 51.238 118.891 51.0173 119.271C50.7966 119.65 50.4883 119.973 50.1178 120.211L34.7698 128.998C34.0725 129.406 33.5 129.078 33.5 128.27V127.768C33.525 127.331 33.6528 126.905 33.8734 126.526C34.0939 126.147 34.4009 125.824 34.7698 125.584Z" fill="black"/>
<path d="M34.1386 136.191L80.5714 109.604C80.9164 109.4 81.2027 109.568 81.2027 109.968V115.341C81.1897 115.559 81.126 115.771 81.0165 115.96C80.907 116.15 80.7546 116.312 80.5714 116.433L34.1386 143.019C33.7863 143.223 33.5 143.063 33.5 142.655V137.283C33.5126 137.064 33.577 136.851 33.6879 136.661C33.7988 136.471 33.9532 136.31 34.1386 136.191Z" fill="#036666"/>
<path opacity="0.2" d="M34.1386 136.191L80.5714 109.604C80.9164 109.4 81.2027 109.568 81.2027 109.968V115.341C81.1897 115.559 81.126 115.771 81.0165 115.96C80.907 116.15 80.7546 116.312 80.5714 116.433L34.1386 143.019C33.7863 143.223 33.5 143.063 33.5 142.655V137.283C33.5126 137.064 33.577 136.851 33.6879 136.661C33.7988 136.471 33.9532 136.31 34.1386 136.191Z" fill="white"/>
<path d="M52.6565 139.241L71.0065 128.751C71.7405 128.343 72.2837 128.671 72.2837 129.479V135.099C72.2596 135.537 72.1314 135.963 71.9094 136.343C71.6874 136.722 71.3781 137.044 71.0065 137.283L52.6565 147.781C51.9225 148.181 51.3867 147.853 51.3867 147.053V141.425C51.4123 140.988 51.5404 140.563 51.7608 140.184C51.9813 139.805 52.288 139.482 52.6565 139.241Z" fill="#036666"/>
<path opacity="0.1" d="M52.6565 139.241L71.0065 128.751C71.7405 128.343 72.2837 128.671 72.2837 129.479V135.099C72.2596 135.537 72.1314 135.963 71.9094 136.343C71.6874 136.722 71.3781 137.044 71.0065 137.283L52.6565 147.781C51.9225 148.181 51.3867 147.853 51.3867 147.053V141.425C51.4123 140.988 51.5404 140.563 51.7608 140.184C51.9813 139.805 52.288 139.482 52.6565 139.241Z" fill="black"/>
</svg>
