<svg width="393" height="400" viewBox="0 0 393 400" fill="none" xmlns="http://www.w3.org/2000/svg">
<path fill-rule="evenodd" clip-rule="evenodd" d="M184.351 1.69429C228.943 -9.95229 265.052 41.2336 301.739 70.0227C337.642 98.197 385.976 120.99 394.78 166.824C403.504 212.244 363.229 249.88 344.343 291.835C328.395 327.262 325.973 374.314 292.932 393.068C260.236 411.627 221.305 387.594 184.351 382.648C153.401 378.506 121.072 383.248 94.3598 366.492C66.2272 348.844 49.2635 318.865 34.2589 288.494C16.4917 252.531 -15.2948 212.786 0.0764642 175.651C15.6538 138.018 74.0446 149.421 103.23 121.87C138.961 88.1393 137.525 13.9244 184.351 1.69429Z" fill="#048581" fill-opacity="0.1"/>
</svg>
